<?xml version="1.0" encoding="utf-8"?>
<!-- Generator: Adobe Illustrator 17.0.0, SVG Export Plug-In . SVG Version: 6.00 Build 0)  -->
<!DOCTYPE svg PUBLIC "-//W3C//DTD SVG 1.1//EN" "http://www.w3.org/Graphics/SVG/1.1/DTD/svg11.dtd">
<svg version="1.1" id="Capa_1" xmlns="http://www.w3.org/2000/svg" xmlns:xlink="http://www.w3.org/1999/xlink" x="0px" y="0px"
	 width="21.75px" height="27.125px" viewBox="0 0 21.75 27.125" enable-background="new 0 0 21.75 27.125" xml:space="preserve">
<path fill="#FFFFFF" d="M14.127,11.3c1.517-0.976,2.525-2.674,2.525-4.611c0-3.027-2.454-5.481-5.481-5.481
	c-3.027,0-5.481,2.453-5.481,5.481c0,1.937,1.007,3.635,2.525,4.611c-3.575,0.319-6.387,3.331-6.387,6.988v5.689l0.015,0.09
	l0.392,0.122c3.692,1.154,6.901,1.539,9.542,1.539c5.157,0,8.147-1.471,8.332-1.564l0.366-0.187h0.039v-5.689
	C20.513,14.632,17.702,11.621,14.127,11.3z"/>
</svg>
