<?xml version="1.0" encoding="utf-8"?>
<!-- Generator: Adobe Illustrator 17.0.0, SVG Export Plug-In . SVG Version: 6.00 Build 0)  -->
<!DOCTYPE svg PUBLIC "-//W3C//DTD SVG 1.1//EN" "http://www.w3.org/Graphics/SVG/1.1/DTD/svg11.dtd">
<svg version="1.1" id="Capa_1" xmlns="http://www.w3.org/2000/svg" xmlns:xlink="http://www.w3.org/1999/xlink" x="0px" y="0px"
	 width="198px" height="27.125px" viewBox="0 0 198 27.125" enable-background="new 0 0 198 27.125" xml:space="preserve">
<g>
	<path fill="#FFFFFF" d="M7.567,1.984h13.19c0,0.089,0.005,0.179,0.017,0.268c0.011,0.089,0.017,0.179,0.017,0.268
		c0,0.581-0.067,1.172-0.201,1.774c-0.134,0.603-0.324,1.217-0.569,1.841h-8.303l-0.971,5.658h6.596
		c0,0.714-0.062,1.406-0.185,2.076c-0.123,0.669-0.307,1.373-0.552,2.109h-6.595L8.237,26.056c-0.916,0.134-1.741,0.201-2.478,0.201
		c-0.803,0-1.607-0.067-2.41-0.201L7.567,1.984z"/>
	<path fill="#FFFFFF" d="M20.255,16.179c0.245-1.406,0.429-2.65,0.552-3.732c0.123-1.083,0.184-1.925,0.184-2.528
		c0-0.245,0-0.452,0-0.619c0-0.167-0.011-0.352-0.033-0.553c0.736-0.134,1.473-0.201,2.209-0.201c0.334,0,0.669,0.017,1.004,0.05
		c0.334,0.033,0.691,0.083,1.071,0.15c0.044,0.179,0.089,0.391,0.134,0.636c0.044,0.246,0.067,0.614,0.067,1.105
		c0,0.201-0.006,0.401-0.017,0.603c-0.012,0.201-0.039,0.447-0.084,0.736c0.223-0.402,0.502-0.798,0.837-1.188
		c0.334-0.39,0.708-0.742,1.121-1.055c0.413-0.312,0.871-0.563,1.373-0.753c0.502-0.189,1.054-0.285,1.657-0.285
		c0.468,0,0.87,0.056,1.205,0.167c0.022,0.089,0.033,0.179,0.033,0.268c0,0.089,0,0.19,0,0.301c0,0.625-0.078,1.272-0.234,1.942
		c-0.157,0.669-0.369,1.228-0.636,1.674c-0.134-0.022-0.279-0.044-0.436-0.067c-0.156-0.022-0.357-0.034-0.603-0.034
		c-0.916,0-1.668,0.157-2.26,0.469c-0.591,0.313-1.077,0.753-1.456,1.323c-0.38,0.569-0.681,1.255-0.904,2.059
		c-0.223,0.804-0.424,1.697-0.603,2.679l-1.239,6.729c-0.87,0.134-1.685,0.201-2.444,0.201c-0.781,0-1.551-0.067-2.31-0.201
		L20.255,16.179z"/>
	<path fill="#FFFFFF" d="M34.751,19.494c0.134,1.071,0.491,1.87,1.071,2.394c0.58,0.524,1.428,0.786,2.544,0.786
		c0.893,0,1.679-0.094,2.36-0.284c0.68-0.189,1.4-0.44,2.159-0.753c0.357,0.447,0.597,0.988,0.72,1.624
		c0.123,0.637,0.184,1.312,0.184,2.026c-0.379,0.179-0.82,0.34-1.322,0.485s-1.021,0.268-1.557,0.368s-1.071,0.178-1.607,0.234
		c-0.536,0.055-1.016,0.083-1.44,0.083c-1.361,0-2.527-0.167-3.499-0.502c-0.971-0.335-1.774-0.809-2.41-1.423
		c-0.636-0.613-1.105-1.361-1.406-2.243c-0.301-0.881-0.452-1.858-0.452-2.929c0-1.361,0.234-2.7,0.703-4.018
		c0.469-1.316,1.133-2.494,1.992-3.532c0.859-1.038,1.908-1.875,3.147-2.511c1.239-0.636,2.628-0.955,4.168-0.955
		c0.737,0,1.423,0.09,2.059,0.268c0.636,0.179,1.188,0.452,1.657,0.82s0.837,0.82,1.104,1.356c0.268,0.536,0.402,1.161,0.402,1.875
		c0,1.004-0.234,1.875-0.703,2.611c-0.468,0.737-1.094,1.362-1.875,1.875c-0.782,0.514-1.669,0.932-2.662,1.255
		c-0.993,0.324-2.025,0.564-3.097,0.72L34.751,19.494z M36.66,16.079c0.848-0.134,1.54-0.307,2.076-0.519
		c0.536-0.212,0.959-0.446,1.272-0.703c0.312-0.256,0.524-0.519,0.636-0.787c0.111-0.268,0.167-0.536,0.167-0.804
		c0-0.423-0.14-0.77-0.418-1.038c-0.279-0.268-0.653-0.402-1.122-0.402c-0.581,0-1.11,0.129-1.59,0.385
		c-0.48,0.257-0.898,0.597-1.255,1.021c-0.357,0.424-0.664,0.91-0.92,1.456c-0.257,0.547-0.452,1.1-0.586,1.657L36.66,16.079z"/>
	<path fill="#FFFFFF" d="M50.118,19.494c0.134,1.071,0.491,1.87,1.071,2.394c0.58,0.524,1.428,0.786,2.544,0.786
		c0.893,0,1.679-0.094,2.36-0.284c0.68-0.189,1.4-0.44,2.159-0.753c0.357,0.447,0.597,0.988,0.72,1.624
		c0.123,0.637,0.184,1.312,0.184,2.026c-0.379,0.179-0.82,0.34-1.322,0.485s-1.021,0.268-1.557,0.368s-1.071,0.178-1.607,0.234
		c-0.536,0.055-1.016,0.083-1.44,0.083c-1.361,0-2.527-0.167-3.499-0.502c-0.971-0.335-1.774-0.809-2.41-1.423
		c-0.636-0.613-1.105-1.361-1.406-2.243c-0.301-0.881-0.452-1.858-0.452-2.929c0-1.361,0.234-2.7,0.703-4.018
		c0.469-1.316,1.133-2.494,1.992-3.532c0.859-1.038,1.908-1.875,3.147-2.511c1.239-0.636,2.628-0.955,4.168-0.955
		c0.737,0,1.423,0.09,2.059,0.268c0.636,0.179,1.188,0.452,1.657,0.82s0.837,0.82,1.104,1.356c0.268,0.536,0.402,1.161,0.402,1.875
		c0,1.004-0.234,1.875-0.703,2.611c-0.468,0.737-1.094,1.362-1.875,1.875c-0.782,0.514-1.669,0.932-2.662,1.255
		c-0.993,0.324-2.025,0.564-3.097,0.72L50.118,19.494z M52.026,16.079c0.848-0.134,1.54-0.307,2.076-0.519
		c0.536-0.212,0.959-0.446,1.272-0.703c0.312-0.256,0.524-0.519,0.636-0.787c0.111-0.268,0.167-0.536,0.167-0.804
		c0-0.423-0.14-0.77-0.418-1.038c-0.279-0.268-0.653-0.402-1.122-0.402c-0.581,0-1.11,0.129-1.59,0.385
		c-0.48,0.257-0.898,0.597-1.255,1.021c-0.357,0.424-0.664,0.91-0.92,1.456c-0.257,0.547-0.452,1.1-0.586,1.657L52.026,16.079z"/>
	<path fill="#FFFFFF" d="M76.264,18.557c-0.246,1.406-0.424,2.65-0.535,3.732c-0.111,1.083-0.168,1.925-0.168,2.528
		c0,0.245,0,0.451,0,0.619c0,0.167,0.012,0.352,0.033,0.552c-0.736,0.135-1.461,0.201-2.176,0.201c-0.625,0-1.316-0.066-2.076-0.201
		c-0.045-0.178-0.088-0.39-0.133-0.636c-0.045-0.245-0.066-0.613-0.066-1.104c0-0.201,0.004-0.436,0.016-0.703
		s0.039-0.547,0.084-0.837c-0.313,0.514-0.686,0.999-1.121,1.456c-0.436,0.458-0.916,0.854-1.439,1.188
		c-0.525,0.335-1.088,0.603-1.691,0.804c-0.602,0.201-1.238,0.301-1.908,0.301c-1.473,0-2.578-0.469-3.314-1.405
		c-0.736-0.938-1.104-2.177-1.104-3.717c0-1.674,0.251-3.292,0.753-4.854c0.502-1.562,1.25-2.946,2.243-4.151
		c0.993-1.206,2.226-2.17,3.7-2.896c1.473-0.725,3.191-1.088,5.154-1.088c0.156,0,0.307,0.006,0.453,0.017
		c0.145,0.011,0.273,0.017,0.385,0.017c0.244-1.317,0.418-2.433,0.52-3.348c0.1-0.915,0.15-1.674,0.15-2.277
		c0-0.245-0.006-0.452-0.018-0.619s-0.027-0.352-0.051-0.553c0.381-0.067,0.814-0.117,1.307-0.15c0.49-0.034,0.914-0.05,1.271-0.05
		c0.648,0,1.361,0.067,2.143,0.201c0.111,0.335,0.168,0.759,0.168,1.272c0,0.982-0.135,2.176-0.402,3.582L76.264,18.557z
		 M72.682,12.33c-0.201-0.044-0.396-0.072-0.586-0.084c-0.189-0.011-0.373-0.017-0.553-0.017c-1.07,0-1.98,0.268-2.729,0.803
		s-1.367,1.206-1.857,2.009c-0.492,0.804-0.848,1.669-1.072,2.595c-0.223,0.926-0.334,1.769-0.334,2.528
		c0,1.652,0.547,2.477,1.641,2.477c1.07,0,2.064-0.653,2.979-1.958c0.916-1.306,1.586-3.141,2.01-5.507L72.682,12.33z"/>
	<path fill="#FFFFFF" d="M85.068,26.457c-2.299,0-3.989-0.603-5.071-1.808c-1.083-1.205-1.624-2.856-1.624-4.955
		c0-1.339,0.201-2.684,0.603-4.034c0.401-1.35,1.005-2.566,1.808-3.649c0.804-1.082,1.813-1.964,3.03-2.645
		c1.216-0.681,2.639-1.021,4.269-1.021c2.321,0,4.022,0.614,5.105,1.841c1.082,1.228,1.624,2.891,1.624,4.989
		c0,1.384-0.196,2.745-0.586,4.084c-0.392,1.339-0.988,2.544-1.791,3.616c-0.804,1.071-1.819,1.937-3.047,2.595
		S86.721,26.457,85.068,26.457z M85.504,22.842c0.848,0,1.563-0.268,2.143-0.804c0.58-0.536,1.055-1.199,1.423-1.992
		c0.368-0.792,0.631-1.629,0.787-2.511c0.155-0.881,0.234-1.679,0.234-2.394c0-2.053-0.837-3.08-2.511-3.08
		c-0.849,0-1.552,0.279-2.109,0.837c-0.559,0.558-1.016,1.239-1.373,2.042c-0.357,0.803-0.608,1.652-0.753,2.544
		c-0.146,0.893-0.218,1.685-0.218,2.377C83.127,21.849,83.919,22.842,85.504,22.842z"/>
	<path fill="#FFFFFF" d="M97.021,16.179c0.245-1.406,0.43-2.65,0.552-3.732c0.123-1.083,0.185-1.925,0.185-2.528
		c0-0.245,0-0.452,0-0.619c0-0.167-0.012-0.352-0.033-0.553c0.736-0.134,1.473-0.201,2.209-0.201c0.335,0,0.67,0.017,1.005,0.05
		c0.335,0.033,0.691,0.083,1.071,0.15c0.044,0.179,0.089,0.391,0.134,0.636s0.067,0.614,0.067,1.105
		c0,0.201-0.006,0.401-0.018,0.603c-0.011,0.201-0.039,0.447-0.083,0.736c0.513-0.959,1.277-1.774,2.293-2.444
		s2.137-1.004,3.364-1.004c1.184,0,2.104,0.263,2.763,0.787c0.658,0.525,1.055,1.39,1.188,2.595
		c0.535-0.938,1.316-1.735,2.343-2.394s2.144-0.988,3.349-0.988c1.339,0,2.354,0.33,3.046,0.988
		c0.692,0.658,1.038,1.757,1.038,3.297c0,0.759-0.078,1.563-0.234,2.411l-1.941,10.981c-0.849,0.134-1.663,0.201-2.444,0.201
		s-1.552-0.067-2.31-0.201l1.875-10.613c0.089-0.513,0.134-0.993,0.134-1.439c0-0.603-0.123-1.026-0.368-1.272
		c-0.246-0.245-0.626-0.368-1.139-0.368c-0.313,0-0.653,0.079-1.021,0.234c-0.368,0.156-0.742,0.458-1.121,0.904
		c-0.38,0.447-0.736,1.061-1.071,1.841c-0.335,0.782-0.614,1.797-0.837,3.047l-1.339,7.667c-0.849,0.134-1.663,0.201-2.444,0.201
		s-1.552-0.067-2.311-0.201l1.875-10.613c0.089-0.513,0.134-0.993,0.134-1.439c0-0.603-0.123-1.026-0.368-1.272
		c-0.245-0.245-0.625-0.368-1.138-0.368c-0.313,0-0.659,0.079-1.038,0.234c-0.38,0.156-0.759,0.485-1.139,0.988
		c-0.38,0.502-0.748,1.211-1.104,2.126c-0.357,0.915-0.67,2.121-0.938,3.616l-1.238,6.729c-0.871,0.134-1.686,0.201-2.444,0.201
		c-0.781,0-1.552-0.067-2.31-0.201L97.021,16.179z"/>
	<path fill="#FFFFFF" d="M146.87,25.186c-0.781,0.38-1.729,0.686-2.846,0.92s-2.231,0.352-3.348,0.352
		c-2.679,0-4.787-0.803-6.327-2.41s-2.311-3.928-2.311-6.963c0-1.897,0.251-3.771,0.753-5.625c0.503-1.853,1.278-3.51,2.327-4.972
		c1.049-1.461,2.377-2.645,3.984-3.549c1.606-0.904,3.526-1.356,5.758-1.356c1.272,0,2.338,0.101,3.197,0.301
		c0.859,0.201,1.479,0.369,1.858,0.502c-0.09,0.402-0.185,0.736-0.285,1.004c-0.1,0.268-0.262,0.592-0.485,0.971
		c-0.558-0.201-1.166-0.368-1.824-0.502s-1.501-0.201-2.527-0.201c-1.786,0-3.326,0.369-4.62,1.105
		c-1.295,0.736-2.36,1.719-3.197,2.946s-1.457,2.64-1.858,4.235c-0.401,1.596-0.603,3.253-0.603,4.972
		c0,2.433,0.58,4.285,1.741,5.558c1.16,1.272,2.823,1.908,4.988,1.908c0.981,0,1.902-0.101,2.762-0.302
		c0.859-0.2,1.612-0.469,2.26-0.803C146.603,23.791,146.804,24.427,146.87,25.186z"/>
	<path fill="#FFFFFF" d="M163.309,18.891c-0.224,1.272-0.419,2.35-0.586,3.231c-0.168,0.882-0.251,1.724-0.251,2.527
		c0,0.313,0.005,0.564,0.017,0.753c0.011,0.19,0.038,0.408,0.083,0.653c-0.134,0.021-0.317,0.039-0.552,0.05
		c-0.234,0.012-0.43,0.018-0.586,0.018c-0.134,0-0.318-0.006-0.553-0.018c-0.234-0.011-0.407-0.028-0.519-0.05
		c-0.067-0.558-0.101-1.116-0.101-1.674c0-0.156,0.011-0.346,0.033-0.569c0.022-0.223,0.056-0.463,0.101-0.72
		s0.095-0.507,0.15-0.753c0.056-0.246,0.106-0.469,0.151-0.67c-0.201,0.469-0.497,0.977-0.888,1.523s-0.865,1.066-1.423,1.557
		c-0.558,0.491-1.183,0.898-1.875,1.222c-0.691,0.323-1.451,0.485-2.276,0.485c-1.473,0-2.589-0.496-3.348-1.489
		s-1.139-2.382-1.139-4.168c0-1.518,0.24-3.007,0.72-4.469c0.48-1.461,1.188-2.767,2.126-3.917c0.938-1.149,2.104-2.076,3.499-2.779
		c1.395-0.703,3.007-1.055,4.838-1.055c0.691,0,1.428,0.062,2.209,0.184c0.781,0.123,1.406,0.274,1.875,0.452L163.309,18.891z
		 M162.571,10.756c-0.603-0.156-1.372-0.234-2.31-0.234c-1.139,0-2.204,0.251-3.197,0.753c-0.993,0.502-1.858,1.2-2.595,2.092
		c-0.736,0.893-1.317,1.942-1.74,3.147c-0.425,1.205-0.637,2.511-0.637,3.917c0,1.272,0.234,2.272,0.703,2.997
		c0.469,0.726,1.149,1.088,2.042,1.088c0.826,0,1.612-0.268,2.36-0.804c0.748-0.535,1.423-1.249,2.025-2.143
		c0.603-0.892,1.122-1.919,1.557-3.08c0.436-1.16,0.775-2.365,1.021-3.616L162.571,10.756z"/>
	<path fill="#FFFFFF" d="M169.569,16.079c0.223-1.272,0.418-2.349,0.585-3.231c0.168-0.881,0.252-1.724,0.252-2.527
		c0-0.313-0.006-0.563-0.018-0.753c-0.011-0.189-0.039-0.407-0.083-0.653c0.134-0.022,0.317-0.039,0.552-0.05
		c0.234-0.011,0.43-0.017,0.586-0.017c0.134,0,0.318,0.006,0.553,0.017c0.234,0.012,0.407,0.028,0.519,0.05
		c0.045,0.179,0.072,0.357,0.084,0.536c0.011,0.179,0.017,0.424,0.017,0.736c0,0.313-0.012,0.603-0.033,0.871
		c-0.022,0.268-0.056,0.525-0.101,0.77c0.335-0.402,0.687-0.775,1.055-1.122c0.368-0.346,0.77-0.653,1.205-0.92
		c0.436-0.268,0.909-0.48,1.423-0.636c0.514-0.156,1.094-0.234,1.741-0.234c0.155,0,0.335,0.006,0.535,0.017
		c0.201,0.012,0.357,0.04,0.469,0.084c0,0.313-0.033,0.647-0.101,1.004c-0.066,0.357-0.212,0.726-0.435,1.104
		c-0.045-0.022-0.168-0.05-0.368-0.083c-0.201-0.034-0.392-0.05-0.569-0.05c-0.603,0-1.211,0.117-1.825,0.352
		c-0.613,0.234-1.188,0.614-1.724,1.138c-0.536,0.525-1.01,1.211-1.423,2.059c-0.413,0.849-0.731,1.875-0.954,3.08l-1.474,8.437
		c-0.134,0.021-0.317,0.039-0.552,0.05c-0.234,0.012-0.431,0.018-0.586,0.018c-0.134,0-0.318-0.006-0.553-0.018
		c-0.234-0.011-0.407-0.028-0.519-0.05L169.569,16.079z"/>
	<path fill="#FFFFFF" d="M183.73,17.686c-0.335-0.134-0.698-0.295-1.088-0.485c-0.392-0.189-0.754-0.446-1.089-0.77
		c-0.334-0.323-0.613-0.72-0.837-1.188c-0.223-0.469-0.334-1.049-0.334-1.741c0-1.495,0.58-2.689,1.74-3.582
		c1.16-0.893,2.768-1.339,4.821-1.339c1.049,0,1.958,0.117,2.729,0.352c0.77,0.234,1.311,0.441,1.624,0.62
		c-0.112,0.334-0.234,0.647-0.369,0.938c-0.134,0.29-0.29,0.591-0.468,0.904c-0.313-0.156-0.81-0.34-1.49-0.553
		c-0.681-0.211-1.445-0.318-2.293-0.318c-2.634,0-3.951,0.916-3.951,2.745c0,0.67,0.195,1.2,0.586,1.59
		c0.391,0.391,1.088,0.787,2.093,1.188l0.335,0.134c0.446,0.179,0.915,0.374,1.406,0.586c0.49,0.212,0.942,0.486,1.355,0.82
		c0.413,0.335,0.753,0.742,1.021,1.222c0.268,0.48,0.401,1.077,0.401,1.791c0,1.049-0.189,1.942-0.569,2.679
		s-0.893,1.339-1.54,1.808s-1.4,0.814-2.26,1.038c-0.859,0.223-1.78,0.334-2.762,0.334c-1.027,0-1.97-0.083-2.829-0.251
		c-0.859-0.167-1.513-0.362-1.958-0.586c0.111-0.758,0.334-1.417,0.669-1.975c0.223,0.111,0.508,0.218,0.854,0.317
		c0.346,0.101,0.715,0.185,1.105,0.251c0.39,0.067,0.775,0.123,1.154,0.168c0.38,0.045,0.737,0.066,1.071,0.066
		c1.474,0,2.617-0.245,3.432-0.736c0.814-0.49,1.223-1.351,1.223-2.578c0-0.893-0.24-1.54-0.72-1.942
		c-0.48-0.401-1.155-0.77-2.025-1.104L183.73,17.686z"/>
</g>
</svg>
