<?xml version="1.0" encoding="utf-8"?>
<!-- Generator: Adobe Illustrator 17.0.0, SVG Export Plug-In . SVG Version: 6.00 Build 0)  -->
<!DOCTYPE svg PUBLIC "-//W3C//DTD SVG 1.1//EN" "http://www.w3.org/Graphics/SVG/1.1/DTD/svg11.dtd">
<svg version="1.1" id="Capa_1" xmlns="http://www.w3.org/2000/svg" xmlns:xlink="http://www.w3.org/1999/xlink" x="0px" y="0px"
	 width="27.125px" height="26.25px" viewBox="0 0 27.125 26.25" enable-background="new 0 0 27.125 26.25" xml:space="preserve">
<g>
	<path fill="#FFFFFF" d="M24.741,9.927c-0.419-0.167-0.483-0.414-0.815-0.708c-0.362-0.321-0.508-0.702-0.558-1.205
		c-0.063-0.641,0.054-1.276,0.326-1.874c0.2-0.44,0.31-0.899,0.249-1.374c-0.251-1.942-2.157-2.524-3.403-1.968
		c-0.61,0.272-1.243,0.342-1.901,0.292c-0.539-0.041-0.926-0.356-1.27-0.737c-0.336-0.373-0.58-0.803-0.767-1.268
		c-0.089-0.22-0.211,0.011-0.371-0.164c-0.424-0.467-0.933-0.42-1.569-0.42h-0.726c-0.026,0-0.062-0.405-0.094-0.398
		c-0.808,0.175-1.407,0.414-1.747,1.165c-0.238,0.526-0.514,0.913-0.919,1.326c-0.307,0.312-0.659,0.508-1.112,0.546
		C9.448,3.19,8.836,3.132,8.264,2.874C7.841,2.683,7.406,2.592,6.95,2.627C6.248,2.681,5.639,2.94,5.212,3.511
		c-0.589,0.787-0.7,1.657-0.326,2.566c0.252,0.613,0.329,1.241,0.279,1.892C5.15,8.172,5.092,8.365,4.99,8.543
		c-0.315,0.558-0.8,0.93-1.346,1.238c-0.264,0.149-1.05,0.216-1.301,0.391c-0.605,0.424-1.594,0.99-1.594,1.725v0.726
		c0,0.01,0.501,0.021,0.503,0.034c0.158,0.894,0.888,1.529,1.725,1.889c0.479,0.206,1.035,0.475,1.417,0.837
		c0.436,0.414,0.736,0.892,0.726,1.514c-0.009,0.562-0.094,1.086-0.291,1.607c-0.316,0.839-0.223,1.651,0.28,2.403
		c0.617,0.921,1.915,1.247,2.92,0.85c0.572-0.226,1.151-0.347,1.769-0.339c0.584,0.007,1.028,0.258,1.415,0.662
		c0.392,0.41,0.669,0.889,0.882,1.41c0.13,0.318,0.346,0.882,0.604,1.103c0.369,0.317,0.791,0.906,1.275,0.906h0.685
		c0.016,0,0.034-0.328,0.054-0.33c0.864-0.127,1.494-0.742,1.859-1.527c0.243-0.523,0.509-1.099,0.913-1.514
		c0.311-0.319,0.666-0.606,1.125-0.655c0.647-0.07,1.278-0.008,1.873,0.252c0.618,0.271,1.247,0.272,1.87,0.072
		c1.446-0.463,1.93-2.038,1.486-3.213c-0.227-0.602-0.364-1.204-0.342-1.847c0.013-0.365,0.113-0.687,0.328-0.976
		c0.43-0.579,1.007-0.959,1.666-1.227c0.357-0.145,0.043-0.378,0.29-0.669c0.324-0.383-0.033-0.819-0.033-1.323v-0.605
		C25.75,10.959,25.655,10.292,24.741,9.927z M14.322,16.893c-2.547-0.01-4.619-2.09-4.616-4.634c0.003-2.55,2.099-4.64,4.644-4.628
		c2.543,0.011,4.62,2.097,4.618,4.637C18.966,14.818,16.871,16.903,14.322,16.893z"/>
</g>
</svg>
